<svg width="35" height="35" viewBox="0 0 35 35" fill="none" xmlns="http://www.w3.org/2000/svg">
<rect width="35" height="35" fill="#3E8A1D"/>
<path d="M28.8887 16.8659H23.9734C22.9793 16.8659 22.1509 16.037 22.1509 15.0423C22.1509 14.0475 22.9793 13.2186 23.9734 13.2186H28.8887C29.8828 13.2186 30.7113 14.0475 30.7113 15.0423C30.7665 16.037 29.9381 16.8659 28.8887 16.8659ZM24.0287 14.1028C23.5316 14.1028 23.0897 14.4896 23.0897 15.0423C23.0897 15.5396 23.4764 15.9817 24.0287 15.9817H28.944C29.441 15.9817 29.8828 15.5949 29.8828 15.0423C29.8828 14.5449 29.4962 14.1028 28.944 14.1028H24.0287Z" fill="white"/>
<path d="M27.1594 19.6314H24.0667C23.0726 19.6314 22.2441 18.8024 22.2441 17.8077C22.2441 16.813 23.0726 15.984 24.0667 15.984H27.1594C28.1536 15.984 28.982 16.813 28.982 17.8077C28.982 18.8024 28.1536 19.6314 27.1594 19.6314ZM24.0667 16.8682C23.5696 16.8682 23.1278 17.2551 23.1278 17.8077C23.1278 18.3051 23.5144 18.7472 24.0667 18.7472H27.1594C27.6565 18.7472 28.0983 18.3603 28.0983 17.8077C28.0983 17.3103 27.7117 16.8682 27.1594 16.8682H24.0667Z" fill="white"/>
<path d="M26.1069 19.6348H24.0635C21.9648 19.6348 19.7004 18.9165 19.5899 18.8613C18.8168 18.5297 18.0988 18.143 17.4361 17.6457C16.6629 17.0931 15.8345 16.8169 15.006 16.8169H14.2328C13.9567 16.8169 13.791 16.5958 13.791 16.3748V9.63373C13.791 9.35745 14.0119 9.1917 14.2328 9.1917H14.9508C15.8345 9.1917 16.7181 8.91543 17.3808 8.41814C17.7122 8.19712 18.0436 7.92085 18.3749 7.64458C19.9213 6.42897 21.6334 5.10284 23.5111 5.10284C25.0023 5.10284 26.2174 6.31846 26.2174 7.81033V11.0704C26.2174 11.3466 26.1621 11.5677 26.1069 11.7887C25.8307 12.4517 25.2785 12.8938 24.5605 12.8938C23.8425 12.949 23.1798 12.5622 22.7932 11.8992C22.4066 11.1809 22.2409 10.2415 22.2409 9.08119C22.2409 8.80491 22.4618 8.58389 22.738 8.63914C23.0141 8.63914 23.1798 8.86016 23.1798 9.13643C23.1798 10.131 23.2903 10.9046 23.6216 11.5124C23.8425 11.8992 24.1739 12.0097 24.5053 12.0097C24.8366 12.0097 25.1128 11.7887 25.2232 11.4571C25.2785 11.3466 25.2784 11.1809 25.2784 11.0704V7.81033C25.2784 6.81575 24.5053 6.04218 23.5111 6.04218C21.9648 6.04218 20.3632 7.31304 18.9272 8.41814C18.5959 8.69441 18.2093 8.97068 17.8779 9.1917C16.9942 9.7995 16.0001 10.131 14.8956 10.131H14.6194V15.9328H14.9508C16.0001 15.9328 17.0495 16.2643 17.9331 16.9273C18.5406 17.3694 19.2034 17.7009 19.8661 17.9772C19.8661 17.9772 22.0752 18.6955 24.0082 18.6955H26.0517C26.3278 18.6955 26.4935 18.9165 26.4935 19.1375C26.5487 19.4138 26.383 19.6348 26.1069 19.6348Z" fill="white"/>
<path d="M28.949 11.347H25.7458C25.4696 11.347 25.304 11.1259 25.304 10.9049V8.1417C25.304 7.86538 25.5249 7.69958 25.7458 7.69958H28.949C29.9431 7.69958 30.7716 8.52854 30.7716 9.52328C30.8268 10.518 29.9984 11.347 28.949 11.347ZM26.1876 10.4075H28.949C29.4461 10.4075 29.8879 10.0206 29.8879 9.46801C29.8879 8.91538 29.5013 8.52854 28.949 8.52854H26.1876V10.4075Z" fill="white"/>
<path d="M28.8884 14.1124C28.6122 14.1124 28.4465 13.8914 28.4465 13.6703C28.4465 13.4493 28.6675 13.2282 28.8884 13.2282C29.3854 13.2282 29.8272 12.8414 29.8272 12.2887C29.8272 11.7914 29.4407 11.3492 28.8884 11.3492C28.6122 11.3492 28.4465 11.1282 28.4465 10.9071C28.4465 10.6308 28.6675 10.465 28.8884 10.465C29.8825 10.465 30.7109 11.294 30.7109 12.2887C30.7661 13.2835 29.9377 14.1124 28.8884 14.1124Z" fill="white"/>
<path d="M12.8917 19.3007H4.44184C4.16569 19.3007 4 19.0797 4 18.8587C4 18.5824 4.22092 18.4166 4.44184 18.4166H12.8917C13.3336 18.4166 13.6649 18.0851 13.6649 17.6431V8.52607C13.6649 8.08403 13.3336 7.75248 12.8917 7.75248H4.44184C4.16569 7.75248 4 7.53147 4 7.31046C4 7.03418 4.22092 6.86841 4.44184 6.86841H12.8917C13.8306 6.86841 14.6038 7.64198 14.6038 8.58131V17.6431C14.6038 18.5271 13.8306 19.3007 12.8917 19.3007Z" fill="white"/>
<path d="M22.9668 14.607C22.8011 14.607 22.6907 14.5517 22.5802 14.3859C21.5861 12.9491 22.2488 11.678 22.8011 11.2359C22.9668 11.0701 23.2982 11.0701 23.4639 11.2912C23.6296 11.457 23.6296 11.7885 23.4639 11.9543C23.3534 12.0649 22.6354 12.7833 23.4086 13.8885C23.5743 14.1096 23.5191 14.3859 23.2982 14.5517C23.1877 14.607 23.0773 14.607 22.9668 14.607Z" fill="white"/>
<path d="M26.8203 28.9171C22.8439 28.9171 19.6406 25.7123 19.6406 21.734C19.6406 20.6289 19.9168 19.5238 20.4138 18.5292C20.5243 18.3082 20.8004 18.1977 21.0213 18.3082C21.2422 18.4187 21.3527 18.695 21.2422 18.916C20.8004 19.8001 20.5795 20.7394 20.5795 21.6787C20.5795 25.1045 23.3962 27.9225 26.8203 27.9225C30.2445 27.9225 33.0611 25.1045 33.0611 21.6787C33.0611 19.4133 31.7908 17.3136 29.8026 16.2085C29.5817 16.098 29.4712 15.8218 29.6369 15.6007C29.7474 15.3797 30.0235 15.2692 30.2444 15.435C32.564 16.7058 33.9999 19.0818 33.9999 21.734C33.9999 25.6571 30.7967 28.9171 26.8203 28.9171Z" fill="white"/>
<path d="M29.1768 8.58158C29.1216 8.58158 29.0111 8.58159 28.9559 8.52633C28.735 8.4158 28.6245 8.13948 28.7902 7.91843L30.9993 3.88421H22.3285L23.2121 5.43158C23.3226 5.65263 23.2674 5.92894 23.0465 6.09473C22.8256 6.20526 22.5494 6.15 22.3837 5.92895L21.1134 3.66315C21.0582 3.49736 21.0582 3.33156 21.1134 3.22104C21.2239 3.05525 21.3344 3 21.5 3H31.7725C31.9382 3 32.1039 3.11051 32.1591 3.22104C32.2695 3.38683 32.2695 3.55263 32.1591 3.66315L29.5634 8.4158C29.5082 8.52633 29.3425 8.58158 29.1768 8.58158Z" fill="white"/>
<path d="M26.8244 6.42773C26.5483 6.42773 26.3826 6.20667 26.3826 5.98562V4.82509C26.3826 4.54877 26.6035 4.383 26.8244 4.383C27.1005 4.383 27.2662 4.60404 27.2662 4.82509V5.98562C27.3214 6.20667 27.1005 6.42773 26.8244 6.42773Z" fill="white"/>
<path d="M27.6643 25.928H25.897C25.3447 25.928 24.9029 25.4859 24.9029 24.9333V24.4912C24.9029 24.2149 25.1238 24.0491 25.3447 24.0491C25.6209 24.0491 25.7866 24.2701 25.7866 24.4912V24.9333C25.7866 24.9333 25.7865 24.9886 25.8418 24.9886H27.6091C27.6091 24.9886 27.6643 24.9885 27.6643 24.9333V23.6622C27.6643 23.6622 27.6643 23.607 27.6091 23.607H25.8418C25.2895 23.607 24.8477 23.1649 24.8477 22.6122V21.3412C24.8477 20.7885 25.2895 20.3464 25.8418 20.3464H27.6091C28.1613 20.3464 28.6032 20.7885 28.6032 21.3412V21.7833C28.6032 22.0596 28.3823 22.2254 28.1614 22.2254C27.8852 22.2254 27.7195 22.0043 27.7195 21.7833V21.3412C27.7195 21.3412 27.7195 21.2859 27.6643 21.2859H25.897C25.897 21.2859 25.8418 21.2859 25.8418 21.3412V22.6122C25.8418 22.6122 25.8418 22.6675 25.897 22.6675H27.6643C28.2166 22.6675 28.6584 23.1096 28.6584 23.6622V24.9333C28.6584 25.4859 28.2166 25.928 27.6643 25.928Z" fill="white"/>
<path d="M30.6396 24.0534C30.5843 24.0534 30.5291 24.0534 30.4739 23.9981C30.253 23.8876 30.1425 23.6113 30.253 23.3902C31.6889 20.0744 28.4304 18.306 28.2647 18.1955C28.0438 18.085 27.9334 17.8087 28.0438 17.5876C28.1543 17.3665 28.4304 17.256 28.6513 17.3665C28.7066 17.3665 32.8487 19.6323 31.0261 23.7771C31.0261 23.9429 30.8605 24.0534 30.6396 24.0534Z" fill="white"/>
<path d="M23.1325 24.439C22.9668 24.439 22.8564 24.3837 22.7459 24.2179C21.1443 21.8969 22.525 19.0232 22.5802 18.9127C22.6907 18.6916 22.9668 18.5811 23.1877 18.6916C23.4086 18.8021 23.5191 19.0784 23.4086 19.2995C23.4086 19.2995 22.2488 21.8416 23.5191 23.7206C23.6848 23.9416 23.6296 24.2179 23.4086 24.3837C23.2982 24.3837 23.1877 24.439 23.1325 24.439Z" fill="white"/>
<path d="M10.8205 16.5357C10.5444 16.5357 10.3787 16.3147 10.3787 16.0937V7.25294C10.3787 6.97667 10.5996 6.81091 10.8205 6.81091C11.0966 6.81091 11.2623 7.03192 11.2623 7.25294V16.0937C11.3176 16.37 11.0966 16.5357 10.8205 16.5357Z" fill="white"/>
</svg>
