<svg width="35" height="36" viewBox="0 0 35 36" fill="none" xmlns="http://www.w3.org/2000/svg">
<rect y="0.787476" width="35" height="35" fill="#3E8A1D"/>
<path d="M26.0689 24.6253C24.2845 24.6253 22.7788 23.1206 22.7788 21.2109C22.7788 19.3591 24.2287 17.7966 26.0689 17.7966C27.8534 17.7966 29.359 19.3012 29.359 21.2109C29.359 23.1206 27.9091 24.6253 26.0689 24.6253ZM26.0689 18.8961C24.7863 18.8961 23.7826 19.9378 23.7826 21.2688C23.7826 22.5998 24.7863 23.6415 26.0689 23.6415C27.3515 23.6415 28.3553 22.5998 28.3553 21.2688C28.3553 19.9378 27.3515 18.8961 26.0689 18.8961Z" fill="white"/>
<path d="M22.8935 33.1281C22.782 33.1281 22.6705 33.0702 22.6147 33.0123C22.4474 32.8966 22.3917 32.723 22.4474 32.5494L23.4512 25.7797C23.4512 25.6061 23.5627 25.4904 23.73 25.3746C23.8973 25.3168 24.0646 25.3168 24.1761 25.3746C25.403 26.0111 26.8528 26.0111 28.0796 25.3746C28.2469 25.3168 28.4142 25.3168 28.5258 25.3746C28.693 25.4325 28.7488 25.6061 28.8046 25.7797L29.8083 32.5494C29.8083 32.723 29.7526 32.8966 29.641 33.0123C29.4738 33.1281 29.3065 33.1281 29.1392 33.0702L26.1836 31.6815L23.2281 33.0702C23.0608 33.0702 23.0051 33.1281 22.8935 33.1281ZM26.0721 30.5822C26.1279 30.5822 26.2394 30.5822 26.2952 30.64L28.6373 31.7394L27.8566 26.5319C26.6855 26.9369 25.4029 26.9369 24.2876 26.5319L23.5069 31.7394L25.8491 30.64C25.9606 30.5822 26.0164 30.5822 26.0721 30.5822Z" fill="white"/>
<path d="M26.1059 26.8798C23.0947 26.8798 20.6968 24.3339 20.6968 21.2673C20.6968 18.1428 23.1504 15.6547 26.1059 15.6547C29.1172 15.6547 31.5151 18.2006 31.5151 21.2673C31.5708 24.3339 29.1172 26.8798 26.1059 26.8798ZM26.1059 16.6384C23.6523 16.6384 21.7005 18.7214 21.7005 21.2094C21.7005 23.7553 23.7081 25.7805 26.1059 25.7805C28.5596 25.7805 30.5113 23.6975 30.5113 21.2094C30.5671 18.7214 28.5596 16.6384 26.1059 16.6384Z" fill="white"/>
<path d="M21.9524 24.4502H8.12282C6.39412 24.4502 5 23.0037 5 21.21V5.24023C5 3.44653 6.39412 2 8.12282 2H26.9712C28.6999 2 30.094 3.44653 30.094 5.24023V17.6226C30.094 17.854 29.9825 18.0276 29.7594 18.0855C29.5921 18.1433 29.3691 18.1433 29.2018 17.9697C28.3653 17.1018 27.25 16.6389 26.079 16.6389C23.6253 16.6389 21.6736 18.7219 21.6736 21.21C21.6736 22.0779 21.8966 22.888 22.3428 23.6402C22.4543 23.8137 22.4543 23.9873 22.3428 24.1609C22.287 24.3345 22.1197 24.4502 21.9524 24.4502ZM8.06704 2.98364C6.89599 2.98364 5.94801 3.96729 5.94801 5.18238V21.1521C5.94801 22.3672 6.89599 23.3509 8.06704 23.3509H21.1159C20.8371 22.6565 20.6698 21.9043 20.6698 21.1521C20.6698 18.0276 23.1235 15.5396 26.079 15.5396C27.1385 15.5396 28.198 15.8867 29.0345 16.4653V5.12452C29.0345 3.90943 28.0865 2.92578 26.9154 2.92578H8.06704V2.98364Z" fill="white"/>
<path d="M21.1777 21.7305H11.3074C11.0286 21.7305 10.8055 21.4991 10.8055 21.2098C10.8055 19.6475 9.57871 18.4324 8.12883 18.4324C7.85001 18.4324 7.62695 18.201 7.62695 17.9117V8.53815C7.62695 8.24884 7.85001 8.0174 8.12883 8.0174C9.63447 8.0174 10.8055 6.74444 10.8055 5.24004C10.8055 4.95073 11.0286 4.7193 11.3074 4.7193H23.6871C23.9659 4.7193 24.189 4.95073 24.189 5.24004C24.189 6.8023 25.4158 8.0174 26.8657 8.0174C27.1445 8.0174 27.3676 8.24884 27.3676 8.53815V16.2337C27.3676 16.4073 27.3118 16.523 27.2003 16.6387C27.0887 16.7545 26.9214 16.7545 26.8099 16.7545C26.5311 16.6966 26.3081 16.6966 26.085 16.6966C23.6314 16.6966 21.6796 18.7217 21.6796 21.2676C21.6796 21.4991 21.4565 21.7305 21.1777 21.7305ZM11.8093 20.689H20.7316C21.0104 17.8538 23.2968 15.5972 26.1407 15.5972C26.2523 15.5972 26.3638 15.5972 26.4196 15.5972V8.94318C24.8024 8.71173 23.4641 7.38092 23.241 5.64508H11.8093C11.5862 7.32306 10.3036 8.71173 8.63071 8.94318V17.3909C10.2479 17.6224 11.5862 19.011 11.8093 20.689Z" fill="white"/>
<path d="M21.4374 8.93937H13.5746C13.2958 8.93937 13.0728 8.70789 13.0728 8.41854C13.0728 8.12919 13.2958 7.89771 13.5746 7.89771H21.4374C21.7162 7.89771 21.9393 8.12919 21.9393 8.41854C21.9393 8.70789 21.7162 8.93937 21.4374 8.93937Z" fill="white"/>
<path d="M23.894 11.8935H11.124C10.8451 11.8935 10.6221 11.662 10.6221 11.3726C10.6221 11.0833 10.8451 10.8518 11.124 10.8518H23.894C24.1728 10.8518 24.3959 11.0833 24.3959 11.3726C24.3959 11.662 24.1728 11.8935 23.894 11.8935Z" fill="white"/>
<path d="M23.894 13.9189H11.124C10.8451 13.9189 10.6221 13.6874 10.6221 13.3981C10.6221 13.1087 10.8451 12.8773 11.124 12.8773H23.894C24.1728 12.8773 24.3959 13.1087 24.3959 13.3981C24.3959 13.6874 24.1728 13.9189 23.894 13.9189Z" fill="white"/>
<path d="M21.4374 16.0026H13.5746C13.2958 16.0026 13.0728 15.7711 13.0728 15.4818C13.0728 15.1924 13.2958 14.9609 13.5746 14.9609H21.4374C21.7162 14.9609 21.9393 15.1924 21.9393 15.4818C21.9393 15.7711 21.7162 16.0026 21.4374 16.0026Z" fill="white"/>
<path d="M19.8366 18.0862H15.2082C14.9294 18.0862 14.7063 17.8547 14.7063 17.5654C14.7063 17.276 14.9294 17.0446 15.2082 17.0446H19.8366C20.1154 17.0446 20.3385 17.276 20.3385 17.5654C20.3385 17.8547 20.1154 18.0862 19.8366 18.0862Z" fill="white"/>
</svg>
