<svg width="35" height="36" viewBox="0 0 35 36" fill="none" xmlns="http://www.w3.org/2000/svg">
<rect y="0.661377" width="35" height="35" fill="#3E8A1D"/>
<path d="M15.5012 28.4063H7.18058C5.97552 28.4063 5 27.5228 5 26.4314V23.7289C5 23.469 5.22954 23.2611 5.51645 23.2611C5.80337 23.2611 6.03291 23.469 6.03291 23.7289V26.4314C6.03291 27.0031 6.54936 27.4709 7.18058 27.4709H15.5012C15.7881 27.4709 16.0177 27.6787 16.0177 27.9386C16.0177 28.1985 15.7881 28.4063 15.5012 28.4063Z" fill="white"/>
<path d="M15.5012 31.0503H7.18058C5.97552 31.0503 5 30.1668 5 29.0754V26.4248C5 26.1649 5.22954 25.957 5.51645 25.957C5.80337 25.957 6.03291 26.1649 6.03291 26.4248V29.1273C6.03291 29.699 6.54936 30.1668 7.18058 30.1668H15.5012C15.7881 30.1668 16.0177 30.3747 16.0177 30.6345C16.0177 30.8424 15.7881 31.0503 15.5012 31.0503Z" fill="white"/>
<path d="M19.0464 20.505H16.0624C15.546 20.505 15.0869 20.0892 15.0869 19.6214V18.9458C15.0869 18.6859 15.3164 18.4781 15.6034 18.4781C15.8903 18.4781 16.1198 18.6859 16.1198 18.9458V19.5695H18.989V17.6465H16.0624C15.546 17.6465 15.0869 17.2307 15.0869 16.763V14.7361C15.0869 14.2683 15.546 13.8525 16.0624 13.8525H19.0464C19.5628 13.8525 20.0219 14.2683 20.0219 14.7361V15.4117C20.0219 15.6716 19.7924 15.8795 19.5055 15.8795C19.2185 15.8795 18.989 15.6716 18.989 15.4117V14.788H16.1198V16.711H19.0464C19.5628 16.711 20.0219 17.1268 20.0219 17.5945V19.6214C20.0219 20.1412 19.5628 20.505 19.0464 20.505Z" fill="white"/>
<path d="M17.4825 15.5195C17.1956 15.5195 16.9661 15.3116 16.9661 15.0517V13.9603C16.9661 13.7004 17.1956 13.4926 17.4825 13.4926C17.7694 13.4926 17.999 13.7004 17.999 13.9603V15.0517C17.999 15.3116 17.7694 15.5195 17.4825 15.5195Z" fill="white"/>
<path d="M17.4825 20.9224C17.1956 20.9224 16.9661 20.7145 16.9661 20.4547V19.3633C16.9661 19.1034 17.1956 18.8955 17.4825 18.8955C17.7694 18.8955 17.999 19.1034 17.999 19.3633V20.4547C17.999 20.7145 17.7694 20.9224 17.4825 20.9224Z" fill="white"/>
<path d="M9.29803 19.2068C8.09297 19.2068 7.06006 18.3233 7.06006 17.1799C7.06006 16.0885 8.03558 15.153 9.29803 15.153C10.5031 15.153 11.536 16.0365 11.536 17.1799C11.4786 18.3233 10.5031 19.2068 9.29803 19.2068ZM9.29803 16.0885C8.66681 16.0885 8.09297 16.5562 8.09297 17.1799C8.09297 17.8035 8.60942 18.2713 9.29803 18.2713C9.98663 18.2713 10.5031 17.8035 10.5031 17.1799C10.5031 16.6082 9.92925 16.0885 9.29803 16.0885Z" fill="white"/>
<path d="M25.7306 19.2068C24.5256 19.2068 23.4927 18.3233 23.4927 17.1799C23.4927 16.0885 24.4682 15.153 25.7306 15.153C26.9357 15.153 27.9686 16.0365 27.9686 17.1799C27.9686 18.3233 26.9357 19.2068 25.7306 19.2068ZM25.7306 16.0885C25.0994 16.0885 24.5256 16.5562 24.5256 17.1799C24.5256 17.8035 25.042 18.2713 25.7306 18.2713C26.4192 18.2713 26.9357 17.8035 26.9357 17.1799C26.9357 16.6082 26.4192 16.0885 25.7306 16.0885Z" fill="white"/>
<path d="M27.8226 22.9985H7.22183C6.01677 22.9985 5.09863 22.1152 5.09863 21.0759V13.3852C5.09863 12.2939 6.07416 11.4625 7.22183 11.4625H27.8226C29.0277 11.4625 29.9458 12.3459 29.9458 13.3852V21.0759C30.0032 22.1152 29.0277 22.9985 27.8226 22.9985ZM7.22183 12.3459C6.59061 12.3459 6.07416 12.8136 6.07416 13.3852V21.0759C6.07416 21.6475 6.59061 22.1152 7.22183 22.1152H27.8226C28.4538 22.1152 28.9703 21.6475 28.9703 21.0759V13.3852C28.9703 12.8136 28.4538 12.3459 27.8226 12.3459H7.22183Z" fill="white"/>
<path d="M15.5012 25.7011H7.18058C5.97552 25.7011 5 24.8176 5 23.7262V21.0237C5 20.7638 5.22954 20.5559 5.51645 20.5559C5.80337 20.5559 6.03291 20.7638 6.03291 21.0237C6.03291 21.5953 6.54936 22.0631 7.18058 22.0631C7.4675 22.0631 7.69704 22.271 7.69704 22.5309C7.69704 22.7907 7.4675 22.9986 7.18058 22.9986C6.7789 22.9986 6.37721 22.8947 6.03291 22.6868V23.7262C6.03291 24.2979 6.54936 24.7657 7.18058 24.7657H15.5012C15.7881 24.7657 16.0177 24.9735 16.0177 25.2334C16.0177 25.4933 15.7881 25.7011 15.5012 25.7011Z" fill="white"/>
<path d="M27.7643 28.4063H19.4437C19.1568 28.4063 18.9272 28.1985 18.9272 27.9386C18.9272 27.6787 19.1568 27.4709 19.4437 27.4709H27.7643C28.3956 27.4709 28.912 27.0031 28.912 26.4314V23.7289C28.912 23.469 29.1416 23.2611 29.4285 23.2611C29.7154 23.2611 29.9449 23.469 29.9449 23.7289V26.4314C30.0023 27.5228 28.9694 28.4063 27.7643 28.4063Z" fill="white"/>
<path d="M27.7643 31.0503H19.4437C19.1568 31.0503 18.9272 30.8424 18.9272 30.5826C18.9272 30.3227 19.1568 30.1148 19.4437 30.1148H27.7643C28.3956 30.1148 28.912 29.6471 28.912 29.0754V26.4248C28.912 26.1649 29.1416 25.957 29.4285 25.957C29.7154 25.957 29.9449 26.1649 29.9449 26.4248V29.1273C30.0023 30.1668 28.9694 31.0503 27.7643 31.0503Z" fill="white"/>
<path d="M27.7643 25.7011H19.4437C19.1568 25.7011 18.9272 25.4933 18.9272 25.2334C18.9272 24.9735 19.1568 24.7657 19.4437 24.7657H27.7643C28.3956 24.7657 28.912 24.2979 28.912 23.7262V22.6868C28.5677 22.8947 28.166 22.9986 27.7643 22.9986C27.4774 22.9986 27.2479 22.7907 27.2479 22.5309C27.2479 22.271 27.4774 22.0631 27.7643 22.0631C28.3956 22.0631 28.912 21.5953 28.912 21.0237C28.912 20.7638 29.1416 20.5559 29.4285 20.5559C29.7154 20.5559 29.9449 20.7638 29.9449 21.0237V23.7262C30.0023 24.8176 28.9694 25.7011 27.7643 25.7011Z" fill="white"/>
<path d="M19.4803 31.0569H15.5208C15.2339 31.0569 15.0044 30.8491 15.0044 30.5892V22.5348C15.0044 22.275 15.2339 22.0671 15.5208 22.0671C15.8078 22.0671 16.0373 22.275 16.0373 22.5348V30.1216H18.9639V22.5348C18.9639 22.275 19.1934 22.0671 19.4803 22.0671C19.7672 22.0671 19.9968 22.275 19.9968 22.5348V30.5892C19.9968 30.8491 19.7672 31.0569 19.4803 31.0569Z" fill="white"/>
<path d="M8.03794 16.5585C7.75102 16.5585 7.52148 16.3506 7.52148 16.0908V14.4796C7.52148 13.9079 8.03794 13.4402 8.66916 13.4402H12.5139C12.8008 13.4402 13.0303 13.6481 13.0303 13.9079C13.0303 14.1678 12.8008 14.3757 12.5139 14.3757H8.66916C8.61177 14.3757 8.49701 14.4277 8.49701 14.5316V16.1427C8.55439 16.3506 8.32486 16.5585 8.03794 16.5585Z" fill="white"/>
<path d="M12.5139 21.0303H8.66916C8.03794 21.0303 7.52148 20.5625 7.52148 19.9908V18.3277C7.52148 18.0679 7.75102 17.86 8.03794 17.86C8.32486 17.86 8.55439 18.0679 8.55439 18.3277V19.9389C8.55439 19.9908 8.61178 20.0948 8.72654 20.0948H12.5713C12.8582 20.0948 13.0877 20.3027 13.0877 20.5625C13.0303 20.8224 12.8008 21.0303 12.5139 21.0303Z" fill="white"/>
<path d="M26.9602 16.5584C26.6733 16.5584 26.4437 16.3505 26.4437 16.0906V14.4795C26.4437 14.4275 26.3863 14.3236 26.2716 14.3236H22.4269C22.1399 14.3236 21.9104 14.1157 21.9104 13.8558C21.9104 13.596 22.1399 13.3881 22.4269 13.3881H26.2716C26.9028 13.3881 27.4192 13.8558 27.4192 14.4275V16.0386C27.4766 16.3505 27.2471 16.5584 26.9602 16.5584Z" fill="white"/>
<path d="M26.2716 21.0303H22.4269C22.1399 21.0303 21.9104 20.8224 21.9104 20.5625C21.9104 20.3027 22.1399 20.0948 22.4269 20.0948H26.2716C26.329 20.0948 26.4437 20.0428 26.4437 19.9389V18.3277C26.4437 18.0679 26.6733 17.86 26.9602 17.86C27.2471 17.86 27.4766 18.0679 27.4766 18.3277V19.9389C27.4766 20.5625 26.9028 21.0303 26.2716 21.0303Z" fill="white"/>
<path d="M16.1758 8.60749H14.11C12.7328 8.60749 11.4704 7.87988 10.8965 6.78847L9.80622 4.70958C9.74884 4.55366 9.74884 4.39775 9.80622 4.2938C9.86361 4.18986 10.0358 4.08591 10.2079 4.03394C10.2653 4.03394 15.6594 3.3583 16.6923 8.0358C16.7497 8.19171 16.6923 8.29566 16.5775 8.3996C16.5201 8.55552 16.348 8.60749 16.1758 8.60749ZM11.0687 4.91747L11.8147 6.37269C12.2163 7.15227 13.1345 7.67199 14.11 7.67199H15.5446C14.6838 5.28127 12.2737 4.91747 11.0687 4.91747Z" fill="white"/>
<path d="M18.3286 8.60862H16.2628C16.0906 8.60862 15.9759 8.55665 15.8611 8.4527C15.7463 8.34876 15.7463 8.19284 15.7463 8.0889C16.7792 3.41141 22.1733 4.08704 22.2307 4.08704C22.4029 4.08704 22.5176 4.19099 22.6324 4.3469C22.6898 4.45085 22.6898 4.60676 22.6324 4.76268L21.5421 6.84157C20.9109 7.88101 19.6484 8.60862 18.3286 8.60862ZM16.894 7.67312H18.3286C19.3041 7.67312 20.2223 7.1534 20.624 6.37382L21.3699 4.9186C20.1649 4.9186 17.7548 5.2824 16.894 7.67312Z" fill="white"/>
<path d="M16.1637 12.3455C15.8768 12.3455 15.6472 12.1376 15.6472 11.8777V8.13572C15.6472 7.87586 15.8768 7.66797 16.1637 7.66797C16.4506 7.66797 16.6801 7.87586 16.6801 8.13572V11.8777C16.6801 12.1376 16.4506 12.3455 16.1637 12.3455Z" fill="white"/>
</svg>
