<svg width="35" height="35" viewBox="0 0 35 35" fill="none" xmlns="http://www.w3.org/2000/svg">
<rect width="35" height="35" fill="#3E8A1D"/>
<path d="M17.62 10.0171C17.3585 10.0171 17.2017 9.79998 17.2017 9.58292V7.35808C17.2017 7.08675 17.4108 6.92395 17.62 6.92395C17.8814 6.92395 18.0383 7.14102 18.0383 7.35808V9.58292C18.0906 9.79998 17.8814 10.0171 17.62 10.0171Z" fill="white"/>
<path d="M17.575 7.79863C16.5815 7.79863 15.7449 6.93036 15.7449 5.89933C15.7449 4.86829 16.5815 4.00006 17.575 4.00006C18.5686 4.00006 19.4052 4.86829 19.4052 5.89933C19.4052 6.98462 18.6208 7.79863 17.575 7.79863ZM17.575 4.92256C17.0521 4.92256 16.6338 5.35668 16.6338 5.89933C16.6338 6.44197 17.0521 6.8761 17.575 6.8761C18.0979 6.8761 18.5162 6.44197 18.5162 5.89933C18.5162 5.35668 18.0979 4.92256 17.575 4.92256Z" fill="white"/>
<path d="M22.5852 11.6548C22.4806 11.6548 22.4283 11.6548 22.3237 11.5462C22.1146 11.3834 22.0623 11.1121 22.2191 10.8951L23.4218 9.10432C23.5787 8.88726 23.8401 8.83298 24.0493 8.99577C24.2585 9.15857 24.3107 9.42991 24.1539 9.64697L22.9512 11.4377C22.8466 11.6005 22.6898 11.6548 22.5852 11.6548Z" fill="white"/>
<path d="M24.6359 10.0714C24.2699 10.0714 23.9039 9.9628 23.5901 9.74574C23.1718 9.47442 22.9104 9.04032 22.8581 8.49767C22.7535 8.00929 22.8581 7.52089 23.1718 7.08677C23.747 6.21853 24.8974 6.00149 25.734 6.59841C26.5707 7.19532 26.7798 8.38914 26.2046 9.25738C25.9432 9.6915 25.5249 9.96282 25.002 10.0171C24.8451 10.0713 24.7405 10.0714 24.6359 10.0714ZM24.6359 7.24956C24.3222 7.24956 24.0607 7.41237 23.8516 7.68369C23.6947 7.90075 23.6424 8.17206 23.6947 8.38912C23.747 8.66044 23.8516 8.87752 24.0607 9.04031C24.2699 9.20311 24.5313 9.25737 24.7405 9.2031C25.0019 9.14884 25.2111 9.04031 25.368 8.82325C25.6817 8.38913 25.5772 7.79221 25.1588 7.46663C25.002 7.30383 24.8451 7.24956 24.6359 7.24956Z" fill="white"/>
<path d="M25.7333 15.9379C25.5765 15.9379 25.3673 15.8293 25.315 15.6122C25.2104 15.3952 25.3673 15.1238 25.5765 15.0153L27.5635 14.2556C27.7727 14.1471 28.0341 14.3099 28.1387 14.527C28.2433 14.744 28.0864 15.0153 27.8772 15.1239L25.8902 15.8836C25.8379 15.9378 25.7856 15.9379 25.7333 15.9379Z" fill="white"/>
<path d="M29.0718 16.1512C28.8103 16.1512 28.5489 16.0969 28.2874 15.9884C27.8691 15.7714 27.5031 15.3915 27.3462 14.9031C27.1893 14.4148 27.1893 13.9263 27.3985 13.438C27.6076 13.0038 27.9737 12.624 28.4443 12.4612C28.9149 12.2984 29.3855 12.2984 29.8561 12.5155C30.2744 12.7325 30.6405 13.1124 30.7974 13.6008C30.9542 14.0892 30.9542 14.5775 30.745 15.0659C30.5359 15.5 30.1699 15.8799 29.6993 16.0427C29.4901 16.097 29.2809 16.1512 29.0718 16.1512ZM29.0718 13.2752C28.9672 13.2752 28.8626 13.2752 28.758 13.3294C28.4966 13.438 28.3397 13.6008 28.2351 13.8178C28.1305 14.0349 28.1306 14.3062 28.1828 14.5776C28.2874 14.8489 28.4443 15.0117 28.6535 15.1202C28.8626 15.2287 29.1241 15.2287 29.3855 15.1744C29.647 15.0659 29.8038 14.9031 29.9084 14.6861C30.013 14.469 30.013 14.1977 29.9607 13.9264C29.8561 13.655 29.6993 13.4923 29.4901 13.3837C29.3332 13.2752 29.1763 13.2752 29.0718 13.2752Z" fill="white"/>
<path d="M28.0601 21.9586C28.0078 21.9586 28.0078 21.9586 27.9555 21.9586L25.8639 21.3617C25.6025 21.3074 25.4979 21.0361 25.5502 20.819C25.6025 20.5477 25.8639 20.4392 26.0731 20.4934L28.1124 21.0903C28.3739 21.1446 28.4784 21.4159 28.4262 21.633C28.4262 21.7958 28.2693 21.9586 28.0601 21.9586Z" fill="white"/>
<path d="M29.4207 23.7531C29.2638 23.7531 29.1069 23.7531 28.9501 23.6988C27.9566 23.4275 27.3814 22.3965 27.6428 21.3655C27.7474 20.8771 28.0611 20.4429 28.4795 20.2259C28.8978 19.9545 29.4207 19.9003 29.8913 20.0631C30.3619 20.1716 30.7802 20.4972 30.9894 20.9313C31.2508 21.3654 31.3031 21.9081 31.1462 22.3965C30.9371 23.2104 30.205 23.7531 29.4207 23.7531ZM29.1592 22.8306C29.6821 22.9934 30.1527 22.6678 30.3096 22.1252C30.3619 21.8538 30.3619 21.5825 30.205 21.3655C30.1005 21.1484 29.8913 20.9856 29.6298 20.9313C29.3684 20.8771 29.1069 20.877 28.8978 21.0398C28.6886 21.1484 28.5317 21.3654 28.4795 21.6368C28.3749 22.1251 28.6886 22.6678 29.1592 22.8306Z" fill="white"/>
<path d="M12.6438 11.6548C12.4869 11.6548 12.3824 11.6005 12.2778 11.4377L11.0751 9.64697C10.9182 9.42991 10.9705 9.15857 11.1797 8.99577C11.3888 8.83298 11.6503 8.88726 11.8072 9.10432L13.0098 10.8951C13.1667 11.1121 13.1144 11.3834 12.9053 11.5462C12.853 11.6548 12.7484 11.6548 12.6438 11.6548Z" fill="white"/>
<path d="M10.6168 10.0714C10.5123 10.0714 10.4077 10.0713 10.3031 10.0171C9.83249 9.90855 9.41417 9.63723 9.10043 9.25738C8.52523 8.38914 8.7344 7.19532 9.57104 6.59841C10.4077 6.00149 11.5581 6.21853 12.1333 7.08677C12.7085 7.95501 12.4993 9.14883 11.6627 9.74574C11.3489 9.9628 10.9829 10.0714 10.6168 10.0714ZM9.83249 8.76897C9.98936 8.98603 10.1985 9.14887 10.46 9.14887C10.7214 9.20313 10.9829 9.14883 11.1397 8.98604C11.5581 8.66045 11.6626 8.06353 11.3489 7.62941C11.0352 7.19529 10.46 7.08676 10.0417 7.41235C9.62333 7.68367 9.51875 8.33485 9.83249 8.76897Z" fill="white"/>
<path d="M9.4274 15.9379C9.37511 15.9379 9.32283 15.9378 9.27054 15.8836L7.2835 15.1239C7.07434 15.0153 6.91748 14.7983 7.02206 14.527C7.12664 14.3099 7.33578 14.1471 7.59723 14.2556L9.58427 15.0153C9.79343 15.1238 9.95029 15.3409 9.84571 15.6122C9.79342 15.8293 9.63656 15.9379 9.4274 15.9379Z" fill="white"/>
<path d="M6.1826 16.1512C5.97344 16.1512 5.76429 16.097 5.55513 16.0427C5.08452 15.8799 4.71848 15.5 4.50932 15.0659C4.30016 14.6318 4.30017 14.0892 4.45704 13.6008C4.61391 13.1124 4.97994 12.7325 5.39826 12.5155C5.81658 12.2984 6.33947 12.2984 6.81008 12.4612C7.28069 12.624 7.64673 13.0038 7.85589 13.438C8.06505 13.8721 8.06506 14.4148 7.90819 14.9031C7.75132 15.3915 7.38529 15.7714 6.96697 15.9884C6.70551 16.0969 6.44406 16.1512 6.1826 16.1512ZM6.1826 13.2752C6.02573 13.2752 5.92116 13.3295 5.76429 13.3837C5.55513 13.4923 5.34597 13.7093 5.29368 13.9264C5.1891 14.1977 5.24138 14.4147 5.34596 14.6861C5.45054 14.9031 5.65972 15.1202 5.86888 15.1744C6.13033 15.283 6.33948 15.2287 6.60094 15.1202C6.8101 15.0117 7.01926 14.7946 7.07155 14.5776C7.17613 14.3062 7.12383 14.0891 7.01925 13.8178C6.91467 13.6008 6.70551 13.3837 6.49635 13.3294C6.39177 13.2752 6.28718 13.2752 6.1826 13.2752Z" fill="white"/>
<path d="M7.1648 21.9586C6.95564 21.9586 6.79876 21.85 6.74647 21.633C6.69418 21.3617 6.79877 21.1446 7.06022 21.0903L9.09953 20.4934C9.36098 20.4392 9.57014 20.5477 9.62243 20.819C9.67472 21.0903 9.57015 21.3074 9.3087 21.3617L7.26936 21.9586C7.26936 21.9586 7.21709 21.9586 7.1648 21.9586Z" fill="white"/>
<path d="M5.83016 23.7485C5.04581 23.7485 4.26145 23.2059 4.05229 22.3376C3.94771 21.8492 4 21.3609 4.20916 20.8725C4.47061 20.4384 4.83663 20.1128 5.30725 20.0043C5.77786 19.8957 6.24847 19.95 6.71908 20.1671C7.13741 20.4384 7.45115 20.8182 7.55573 21.3066C7.81718 22.3377 7.24198 23.3687 6.24847 23.64C6.14389 23.7485 5.98703 23.7485 5.83016 23.7485ZM5.83016 20.8725C5.72558 20.8725 5.67327 20.8725 5.56869 20.9268C5.30724 20.981 5.09808 21.1438 4.9935 21.3609C4.88892 21.578 4.83664 21.8493 4.88893 22.1206C5.0458 22.6633 5.5164 22.9346 6.03931 22.826C6.56221 22.6632 6.82366 22.1749 6.71908 21.6322C6.66679 21.3609 6.50991 21.1438 6.30075 21.0353C6.14388 20.9268 5.98703 20.8725 5.83016 20.8725Z" fill="white"/>
<path d="M17.62 15.8281C17.3585 15.8281 17.2017 15.6111 17.2017 15.394V14.7428C17.2017 14.4715 17.4108 14.3087 17.62 14.3087C17.8814 14.3087 18.0383 14.5258 18.0383 14.7428V15.394C18.0906 15.6653 17.8814 15.8281 17.62 15.8281Z" fill="white"/>
<path d="M17.6189 22.2294C16.5208 22.2294 15.6319 21.3071 15.6319 20.1677C15.6319 19.8964 15.841 19.7336 16.0502 19.7336C16.3117 19.7336 16.4685 19.9506 16.4685 20.1677C16.4685 20.8187 16.9914 21.3071 17.5666 21.3071C18.1941 21.3071 18.6647 20.8187 18.6647 20.1677C18.6647 19.5708 18.1418 19.0283 17.5666 19.0283C16.4685 19.0283 15.5796 18.1059 15.5796 16.9665C15.5796 15.8271 16.4685 14.9048 17.5666 14.9048C18.6647 14.9048 19.5537 15.8271 19.5537 16.9665C19.5537 17.2378 19.3445 17.4006 19.1353 17.4006C18.9262 17.4006 18.717 17.1835 18.717 16.9665C18.717 16.3154 18.1941 15.8271 17.6189 15.8271C16.9914 15.8271 16.5208 16.3154 16.5208 16.9665C16.5208 17.5633 17.0437 18.1059 17.6189 18.1059C18.717 18.1059 19.6059 19.0283 19.6059 20.1677C19.6582 21.3071 18.717 22.2294 17.6189 22.2294Z" fill="white"/>
<path d="M17.62 22.936C17.3585 22.936 17.2017 22.719 17.2017 22.5019V21.7965C17.2017 21.5251 17.4108 21.3624 17.62 21.3624C17.8814 21.3624 18.0383 21.5794 18.0383 21.7965V22.5019C18.0906 22.719 17.8814 22.936 17.62 22.936Z" fill="white"/>
<path d="M17.5785 25.6993C13.8136 25.6993 10.7285 22.4982 10.7285 18.5918C10.7285 14.6853 13.8136 11.4841 17.5785 11.4841C21.3434 11.4841 24.4285 14.6853 24.4285 18.5918C24.4808 22.4982 21.3957 25.6993 17.5785 25.6993ZM17.5785 12.3523C14.2843 12.3523 11.6174 15.1193 11.6174 18.5375C11.6174 21.9556 14.2843 24.7227 17.5785 24.7227C20.8728 24.7227 23.5396 21.9556 23.5396 18.5375C23.5919 15.1736 20.8728 12.3523 17.5785 12.3523Z" fill="white"/>
<path d="M15.0111 22.935C14.9065 22.935 14.8542 22.9351 14.7496 22.8265C13.3901 21.8499 12.6057 20.2222 12.6057 18.5403C12.6057 16.7498 13.4947 15.1221 14.9065 14.1455C15.1157 13.9827 15.3771 14.0912 15.534 14.3083C15.6908 14.5253 15.5863 14.7966 15.3771 14.9594C14.1744 15.7732 13.4947 17.1296 13.4947 18.5945C13.4947 20.0052 14.1744 21.3074 15.2725 22.1212C15.4817 22.284 15.534 22.5552 15.3771 22.7723C15.2725 22.8808 15.1679 22.935 15.0111 22.935Z" fill="white"/>
<path d="M20.24 22.9321C20.0831 22.9321 19.9785 22.8779 19.874 22.7151C19.7171 22.4981 19.7694 22.2268 19.9785 22.064C21.0766 21.2502 21.7564 19.948 21.7564 18.5373C21.7564 17.0724 21.0243 15.716 19.874 14.9022C19.6648 14.7394 19.6125 14.4681 19.7171 14.2511C19.874 14.0341 20.1354 13.9798 20.3446 14.0883C21.8087 15.0649 22.6453 16.6926 22.6453 18.4831C22.6453 20.165 21.861 21.7927 20.5014 22.7693C20.3968 22.9321 20.2923 22.9321 20.24 22.9321Z" fill="white"/>
</svg>
