<svg width="48" height="49" viewBox="0 0 48 49" fill="none" xmlns="http://www.w3.org/2000/svg">
<path fill-rule="evenodd" clip-rule="evenodd" d="M24 8.40664C15.1634 8.40664 8 15.5998 8 24.473C8 33.3463 15.1634 40.5394 24 40.5394C32.8366 40.5394 40 33.3463 40 24.473C40 15.5998 32.8366 8.40664 24 8.40664ZM4 24.473C4 13.3815 12.9543 4.39005 24 4.39005C35.0457 4.39005 44 13.3815 44 24.473C44 35.5646 35.0457 44.556 24 44.556C12.9543 44.556 4 35.5646 4 24.473ZM27.4142 17.0281C28.1953 17.8123 28.1953 19.0839 27.4142 19.8682L22.8284 24.473L27.4142 29.0778C28.1953 29.8621 28.1953 31.1337 27.4142 31.918C26.6332 32.7023 25.3668 32.7023 24.5858 31.918L18.5858 25.8931C17.8047 25.1088 17.8047 23.8372 18.5858 23.0529L24.5858 17.0281C25.3668 16.2438 26.6332 16.2438 27.4142 17.0281Z" fill="#2C6016"/>
</svg>
