<svg width="66" height="66" viewBox="0 0 66 66" fill="none" xmlns="http://www.w3.org/2000/svg">
<path d="M57.75 11.8897V54.1103C57.75 55.0756 57.3665 56.0014 56.684 56.684C56.0014 57.3665 55.0756 57.75 54.1103 57.75H11.8897C10.9244 57.75 9.99862 57.3665 9.31605 56.684C8.63347 56.0014 8.25 55.0756 8.25 54.1103V11.8897C8.25 10.9244 8.63347 9.99862 9.31605 9.31605C9.99862 8.63347 10.9244 8.25 11.8897 8.25H54.1103C55.0756 8.25 56.0014 8.63347 56.684 9.31605C57.3665 9.99862 57.75 10.9244 57.75 11.8897ZM22.8088 27.1765H15.5294V50.4706H22.8088V27.1765ZM23.464 19.1691C23.4678 18.6185 23.3631 18.0725 23.156 17.5623C22.9488 17.0521 22.6432 16.5878 22.2565 16.1957C21.8699 15.8036 21.4098 15.4916 20.9025 15.2773C20.3953 15.0631 19.8508 14.9509 19.3001 14.9471H19.1691C18.0494 14.9471 16.9755 15.3919 16.1837 16.1837C15.3919 16.9755 14.9471 18.0494 14.9471 19.1691C14.9471 20.2889 15.3919 21.3628 16.1837 22.1546C16.9755 22.9464 18.0494 23.3912 19.1691 23.3912C19.7198 23.4047 20.2677 23.3096 20.7816 23.1113C21.2955 22.9131 21.7653 22.6154 22.1642 22.2355C22.563 21.8556 22.8831 21.4008 23.1061 20.8972C23.3292 20.3935 23.4507 19.8508 23.464 19.3001V19.1691ZM50.4706 36.3194C50.4706 29.3166 46.0156 26.5941 41.5897 26.5941C40.1406 26.5216 38.6978 26.8302 37.4051 27.4893C36.1125 28.1484 35.0153 29.1348 34.2229 30.3503H34.0191V27.1765H27.1765V50.4706H34.4559V38.081C34.3507 36.8121 34.7504 35.553 35.5682 34.5771C36.386 33.6011 37.5558 32.9873 38.8235 32.869H39.1001C41.415 32.869 43.1329 34.3249 43.1329 37.9937V50.4706H50.4123L50.4706 36.3194Z" fill="#3E8A1D"/>
</svg>
