<svg width="35" height="35" viewBox="0 0 35 35" fill="none" xmlns="http://www.w3.org/2000/svg">
<rect y="6.10352e-05" width="35" height="35" fill="#3E8A1D"/>
<path d="M23.1685 27.5023H18.2798C18.1699 27.5023 18.115 27.5023 18.0052 27.4453L16.2474 26.2483C16.0277 26.0772 15.9728 25.7922 16.1376 25.5642C16.3023 25.3362 16.577 25.2792 16.7967 25.4502L18.4446 26.5903H23.2234C23.4981 26.5903 23.6629 26.8183 23.6629 27.0463C23.6629 27.2743 23.4431 27.5023 23.1685 27.5023Z" fill="white"/>
<path d="M24.1137 30.2417H18.7855C17.9616 30.2417 17.1377 30.0707 16.3687 29.7858L11.3152 27.791C11.1504 27.734 11.0405 27.563 11.0405 27.335V21.8635C11.0405 21.5785 11.2602 21.4076 11.48 21.4076H14.3363C15.4898 21.4076 16.3687 21.8635 17.4672 22.7184L18.1264 23.1744C18.6208 23.5164 19.225 23.6873 19.8292 23.6873H19.9391H22.4109C23.4545 23.6873 24.2785 24.5423 24.2785 25.6252C24.2785 25.9672 24.2235 26.2521 24.0587 26.5371C24.2785 26.4801 24.4982 26.3661 24.7179 26.2521L26.97 24.6563C27.739 24.0863 28.7827 24.2573 29.3869 24.9412C29.7164 25.3402 29.8263 25.8531 29.7714 26.3661C29.7164 26.8791 29.4418 27.335 29.0024 27.62L26.2559 29.5578C25.5968 30.0137 24.8827 30.2417 24.1137 30.2417ZM11.9194 27.0501L16.6433 28.8739C17.3025 29.1589 18.0165 29.2728 18.7306 29.2728H24.0587C24.663 29.2728 25.2123 29.1018 25.6517 28.7599L28.3981 26.8221C28.6179 26.7081 28.7277 26.4801 28.7277 26.1951C28.7827 25.9671 28.6728 25.6822 28.5629 25.5112C28.2883 25.1692 27.7939 25.1122 27.4094 25.3972L25.1573 26.993C24.7179 27.335 24.1686 27.506 23.6193 27.506H22.5207H22.4658C22.4109 27.506 22.4109 27.506 22.3559 27.506H20.1588C19.8841 27.506 19.7193 27.278 19.7193 27.0501C19.7193 26.8221 19.9391 26.5941 20.1588 26.5941H22.3559C22.8503 26.5941 23.2897 26.1381 23.2897 25.6252C23.2897 25.1122 22.8503 24.6563 22.3559 24.6563H19.8292C19.0053 24.6563 18.2363 24.4283 17.5771 23.9723L16.9179 23.5164C15.9292 22.7754 15.2151 22.3765 14.2813 22.3765H11.8645V27.0501H11.9194Z" fill="white"/>
<path d="M10.1844 29.8907H2.43943C2.16479 29.8907 2 29.6627 2 29.4347V19.3467C2 19.0617 2.21972 18.8907 2.43943 18.8907H10.1844C11.1182 18.8907 11.8872 19.6886 11.8872 20.6575V28.1238C11.8872 29.0927 11.1182 29.8907 10.1844 29.8907ZM2.87887 28.9218H10.1844C10.6239 28.9218 10.9535 28.5798 10.9535 28.1238V20.6575C10.9535 20.2016 10.6239 19.8596 10.1844 19.8596H2.87887V28.9218Z" fill="white"/>
<path d="M22.7296 18.6123H20.5873C19.9831 18.6123 19.4888 18.0993 19.4888 17.4723V16.9022C19.4888 16.6172 19.7085 16.4462 19.9282 16.4462C20.2028 16.4462 20.3676 16.6742 20.3676 16.9022V17.4723C20.3676 17.5293 20.4226 17.6433 20.5324 17.6433H22.6747C22.7296 17.6433 22.8394 17.5863 22.8394 17.4723V15.8762C22.8394 15.8192 22.7845 15.7052 22.6747 15.7052H20.5324C19.9282 15.7052 19.4338 15.1921 19.4338 14.5651V12.969C19.4338 12.3419 19.9282 11.8289 20.5324 11.8289H22.6747C23.2789 11.8289 23.7732 12.3419 23.7732 12.969V13.539C23.7732 13.824 23.5535 13.995 23.3338 13.995C23.0592 13.995 22.8944 13.767 22.8944 13.539V12.969C22.8944 12.912 22.8394 12.798 22.7296 12.798H20.5873C20.5324 12.798 20.4226 12.855 20.4226 12.969V14.5651C20.4226 14.6221 20.4775 14.7361 20.5873 14.7361H22.7296C23.3338 14.7361 23.8282 15.2491 23.8282 15.8762V17.4723C23.7732 18.0993 23.3338 18.6123 22.7296 18.6123Z" fill="white"/>
<path d="M21.6719 19.1846C21.3972 19.1846 21.2324 18.9567 21.2324 18.7287V11.7754C21.2324 11.4904 21.4521 11.3194 21.6719 11.3194C21.9465 11.3194 22.1113 11.5474 22.1113 11.7754V18.7287C22.1662 19.0137 21.9465 19.1846 21.6719 19.1846Z" fill="white"/>
<path d="M21.7017 20.6649C18.8454 20.6649 16.4834 18.2141 16.4834 15.2504C16.4834 12.2867 18.8454 9.83588 21.7017 9.83588C24.558 9.83588 26.92 12.2867 26.92 15.2504C26.92 18.2141 24.6129 20.6649 21.7017 20.6649ZM21.7017 10.8048C19.3397 10.8048 17.4172 12.7996 17.4172 15.2504C17.4172 17.7012 19.3397 19.696 21.7017 19.696C24.0636 19.696 25.9862 17.7012 25.9862 15.2504C25.9862 12.7996 24.0636 10.8048 21.7017 10.8048Z" fill="white"/>
<path d="M21.6613 22.3678C17.8712 22.3678 14.7952 19.176 14.7952 15.2434C14.7952 11.3108 17.8712 8.11908 21.6613 8.11908C25.4514 8.11908 28.5275 11.3108 28.5275 15.2434C28.5824 19.176 25.5064 22.3678 21.6613 22.3678ZM21.6613 9.08798C18.3656 9.08798 15.729 11.8807 15.729 15.2434C15.729 18.6631 18.4205 21.3989 21.6613 21.3989C24.9571 21.3989 27.5937 18.6061 27.5937 15.2434C27.6486 11.8237 24.9571 9.08798 21.6613 9.08798Z" fill="white"/>
<path d="M21.6719 6.64221C21.3972 6.64221 21.2324 6.41419 21.2324 6.18617V4.8181C21.2324 4.53308 21.4521 4.36206 21.6719 4.36206C21.9465 4.36206 22.1113 4.59009 22.1113 4.8181V6.18617C22.1662 6.41419 21.9465 6.64221 21.6719 6.64221Z" fill="white"/>
<path d="M21.6719 3.28021C21.3972 3.28021 21.2324 3.05219 21.2324 2.82417V1.4561C21.2324 1.17108 21.4521 1.00006 21.6719 1.00006C21.9465 1.00006 22.1113 1.22809 22.1113 1.4561V2.82417C22.1662 3.05219 21.9465 3.28021 21.6719 3.28021Z" fill="white"/>
<path d="M17.6487 7.38497C17.374 7.38497 17.2092 7.15699 17.2092 6.92897V5.56085C17.2092 5.27584 17.4289 5.10486 17.6487 5.10486C17.9233 5.10486 18.0881 5.33284 18.0881 5.56085V6.92897C18.0881 7.15699 17.8684 7.38497 17.6487 7.38497Z" fill="white"/>
<path d="M17.6487 4.29938C17.374 4.29938 17.2092 4.07135 17.2092 3.84334V2.47522C17.2092 2.1902 17.4289 2.01923 17.6487 2.01923C17.9233 2.01923 18.0881 2.24721 18.0881 2.47522V3.84334C18.0881 4.07135 17.8684 4.29938 17.6487 4.29938Z" fill="white"/>
<path d="M25.7737 7.38497C25.499 7.38497 25.3342 7.15699 25.3342 6.92897V5.56085C25.3342 5.27584 25.5539 5.10486 25.7737 5.10486C26.0483 5.10486 26.2131 5.33284 26.2131 5.56085V6.92897C26.268 7.15699 26.0483 7.38497 25.7737 7.38497Z" fill="white"/>
<path d="M25.7737 4.29938C25.499 4.29938 25.3342 4.07135 25.3342 3.84334V2.47522C25.3342 2.1902 25.5539 2.01923 25.7737 2.01923C26.0483 2.01923 26.2131 2.24721 26.2131 2.47522V3.84334C26.268 4.07135 26.0483 4.29938 25.7737 4.29938Z" fill="white"/>
<path d="M7.99314 29.8907C7.7185 29.8907 7.55371 29.6627 7.55371 29.4347V19.3467C7.55371 19.0617 7.77343 18.8907 7.99314 18.8907C8.26779 18.8907 8.43258 19.1187 8.43258 19.3467V29.4347C8.43258 29.7197 8.26779 29.8907 7.99314 29.8907Z" fill="white"/>
</svg>
