<svg width="40" height="41" viewBox="0 0 40 41" fill="none" xmlns="http://www.w3.org/2000/svg">
<path fill-rule="evenodd" clip-rule="evenodd" d="M20 36.166C28.8366 36.166 36 28.9728 36 20.0996C36 11.2263 28.8366 4.03318 20 4.03318C11.1634 4.03318 4 11.2263 4 20.0996C4 28.9728 11.1634 36.166 20 36.166ZM40 20.0996C40 31.1911 31.0457 40.1826 20 40.1826C8.9543 40.1826 0 31.1911 0 20.0996C0 9.00804 8.9543 0.0165825 20 0.0165825C31.0457 0.0165825 40 9.00804 40 20.0996ZM16.5858 27.5445C15.8047 26.7603 15.8047 25.4887 16.5858 24.7044L21.1716 20.0996L16.5858 15.4948C15.8047 14.7105 15.8047 13.4389 16.5858 12.6546C17.3668 11.8703 18.6332 11.8703 19.4142 12.6546L25.4142 18.6795C26.1953 19.4638 26.1953 20.7354 25.4142 21.5197L19.4142 27.5445C18.6332 28.3288 17.3668 28.3288 16.5858 27.5445Z" fill="#2C6016"/>
</svg>
