<svg width="35" height="35" viewBox="0 0 35 35" fill="none" xmlns="http://www.w3.org/2000/svg">
<rect width="35" height="35" fill="#3E8A1D"/>
<path d="M10.3564 21.1993C10.1046 21.1993 9.90308 20.9902 9.90308 20.7288V20.0492C9.90308 19.7878 10.1046 19.5787 10.3564 19.5787C10.6083 19.5787 10.8098 19.7878 10.8098 20.0492V20.7288C10.8098 20.9902 10.6083 21.1993 10.3564 21.1993Z" fill="white"/>
<path d="M10.4341 27.8908C9.22514 27.8908 8.26807 26.95 8.26807 25.7479C8.26807 25.4865 8.46956 25.2775 8.72142 25.2775C8.97328 25.2775 9.17477 25.4865 9.17477 25.7479C9.17477 26.4273 9.72886 26.95 10.4341 26.95C11.1393 26.95 11.6934 26.4273 11.6934 25.7479C11.6934 25.0684 11.1393 24.5457 10.4341 24.5457C9.22514 24.5457 8.26807 23.6049 8.26807 22.4028C8.26807 21.2007 9.22514 20.2599 10.4341 20.2599C11.643 20.2599 12.6001 21.2007 12.6001 22.4028C12.6001 22.6641 12.3986 22.8732 12.1467 22.8732C11.8949 22.8732 11.6934 22.6641 11.6934 22.4028C11.6934 21.7233 11.1393 21.2007 10.4341 21.2007C9.72886 21.2007 9.17477 21.7233 9.17477 22.4028C9.17477 23.0823 9.72886 23.6049 10.4341 23.6049C11.643 23.6049 12.6001 24.5457 12.6001 25.7479C12.6001 26.8977 11.643 27.8908 10.4341 27.8908Z" fill="white"/>
<path d="M10.3564 28.6203C10.1046 28.6203 9.90308 28.4112 9.90308 28.1498V27.3657C9.90308 27.1044 10.1046 26.8953 10.3564 26.8953C10.6083 26.8953 10.8098 27.1044 10.8098 27.3657V28.1498C10.8098 28.4112 10.6083 28.6203 10.3564 28.6203Z" fill="white"/>
<path d="M10.3973 30.7696C6.87122 30.7696 4 27.7904 4 24.1317C4 20.4731 6.87122 17.4939 10.3973 17.4939C13.9233 17.4939 16.7945 20.4731 16.7945 24.1317C16.8449 27.7904 13.9233 30.7696 10.3973 30.7696ZM10.3973 18.3824C7.37494 18.3824 4.85633 20.9435 4.85633 24.1317C4.85633 27.32 7.32457 29.881 10.3973 29.881C13.47 29.881 15.9382 27.32 15.9382 24.1317C15.9382 20.9435 13.47 18.3824 10.3973 18.3824Z" fill="white"/>
<path d="M7.95224 18.9519C7.90187 18.9519 7.85149 18.9519 7.80112 18.8997C7.70038 18.8474 7.59963 18.7428 7.54926 18.6383L6.79368 16.9132C6.64256 16.5996 6.69293 16.1291 6.89442 15.8155C7.09591 15.4495 7.44852 15.2927 7.85149 15.2927H12.9391C13.3421 15.2927 13.6947 15.5018 13.8962 15.8155C14.148 16.1291 14.1984 16.5996 14.0473 16.9655L13.2917 18.6906C13.2413 18.7951 13.1406 18.8997 13.0398 18.9519C12.9391 19.0042 12.788 19.0042 12.6872 18.9519C11.2264 18.2724 9.56415 18.2724 8.15373 18.9519C8.10335 18.9519 8.05298 18.9519 7.95224 18.9519ZM10.4205 17.4882C11.1761 17.4882 11.9316 17.6451 12.6369 17.9065L13.1909 16.5996C13.2413 16.495 13.1909 16.3905 13.1909 16.3382C13.1909 16.2859 13.0902 16.2337 12.9895 16.2337H7.90187C7.75075 16.2337 7.70038 16.3382 7.70038 16.3382C7.70038 16.3905 7.65 16.495 7.70038 16.5996L8.25447 17.9065C8.90931 17.5928 9.66489 17.4882 10.4205 17.4882Z" fill="white"/>
<path d="M7.92724 16.1863C7.72575 16.1863 7.57463 16.0818 7.52426 15.8727L6.7183 13.5203C6.56719 13.1544 6.61756 12.7362 6.86942 12.3703C7.07091 12.0566 7.47389 11.8475 7.82649 11.8475H8.68282C9.94213 11.8475 10.9496 12.893 10.9496 14.1999C10.9496 14.4613 10.7481 14.6704 10.4962 14.6704C10.2444 14.6704 10.0429 14.4613 10.0429 14.1999C10.0429 13.4158 9.4384 12.7885 8.68282 12.7885H7.77612C7.625 12.7885 7.57463 12.893 7.52426 12.893C7.47389 12.9453 7.42352 13.0498 7.47389 13.1544L8.27984 15.5068C8.38059 15.7681 8.22947 16.0295 8.02798 16.0818C8.02798 16.1863 7.97761 16.1863 7.92724 16.1863Z" fill="white"/>
<path d="M12.9254 16.1884C12.875 16.1884 12.8247 16.1884 12.7743 16.1361C12.5224 16.0838 12.4217 15.8224 12.4721 15.5611L13.278 13.2087C13.3284 13.0519 13.278 12.9473 13.2276 12.9473C13.1773 12.8951 13.1269 12.8428 12.9758 12.8428H12.1698C11.4142 12.8428 10.8098 13.4701 10.8098 14.2542C10.8098 14.5156 10.6083 14.7247 10.3564 14.7247C10.1046 14.7247 9.90308 14.5156 9.90308 14.2542C9.90308 12.9473 10.9105 11.9019 12.1698 11.9019H13.0262C13.4291 11.9019 13.7817 12.111 13.9832 12.4246C14.1847 12.7383 14.2351 13.1564 14.1343 13.5746L13.3284 15.927C13.278 16.0838 13.0765 16.1884 12.9254 16.1884Z" fill="white"/>
<path d="M30.7068 30.771H10.3564C10.1046 30.771 9.90308 30.5619 9.90308 30.3005C9.90308 30.0392 10.1046 29.8301 10.3564 29.8301H30.7068C30.9587 29.8301 31.1601 30.0392 31.1601 30.3005C31.1601 30.5619 30.9587 30.771 30.7068 30.771Z" fill="white"/>
<path d="M29.4765 30.7673H25.4468C25.1949 30.7673 24.9934 30.5582 24.9934 30.2969V20.0527C24.9934 19.7914 25.1949 19.5823 25.4468 19.5823C25.6986 19.5823 25.9001 19.7914 25.9001 20.0527V29.8265H29.0232V5.94079H25.9505V15.8714C25.9505 16.1327 25.749 16.3418 25.4971 16.3418C25.2453 16.3418 25.0438 16.1327 25.0438 15.8714V5.4704C25.0438 5.20907 25.2453 5 25.4971 5H29.5269C29.7788 5 29.9803 5.20907 29.9803 5.4704V30.2969C29.9299 30.5582 29.7284 30.7673 29.4765 30.7673Z" fill="white"/>
<path d="M22.9226 30.7125H18.8928C18.6409 30.7125 18.4395 30.5034 18.4395 30.2421V10.2763C18.4395 10.015 18.6409 9.80591 18.8928 9.80591H22.9226C23.1744 9.80591 23.3759 10.015 23.3759 10.2763V30.2421C23.3256 30.5034 23.1241 30.7125 22.9226 30.7125ZM19.3462 29.7717H22.4692V10.7467H19.3462V29.7717Z" fill="white"/>
<path d="M16.354 18.3792C16.1021 18.3792 15.9006 18.1702 15.9006 17.9088V7.0897H12.7776V10.0689C12.7776 10.3302 12.5761 10.5393 12.3242 10.5393C12.0723 10.5393 11.8708 10.3302 11.8708 10.0689V6.67157C11.8708 6.41024 12.0723 6.20117 12.3242 6.20117H16.354C16.6058 6.20117 16.8073 6.41024 16.8073 6.67157V17.9611C16.8073 18.1702 16.6058 18.3792 16.354 18.3792Z" fill="white"/>
</svg>
