<svg width="68" height="68" viewBox="0 0 68 68" fill="none" xmlns="http://www.w3.org/2000/svg">
<path d="M34.1069 9.32227C20.1099 9.32227 8.71881 20.2938 8.71387 33.7776C8.71058 38.0896 9.88194 42.2979 12.1029 46.0044L8.5 58.6771L21.9624 55.2766C25.7071 57.2354 29.8709 58.2572 34.0971 58.2543H34.1069C48.104 58.2543 59.4951 47.2811 59.5 33.7973C59.5033 27.266 56.8644 21.1181 52.0688 16.4968C47.2748 11.8739 40.8998 9.32391 34.1069 9.32227ZM34.1069 54.1233H34.0987C30.3115 54.1233 26.5968 53.1428 23.3558 51.2903L22.5826 50.8494L14.597 52.8664L16.7291 45.3645L16.2273 44.5962C14.1197 41.3818 12.9978 37.6213 12.9995 33.7776C13.0045 22.5691 22.474 13.4533 34.1152 13.4533C39.7515 13.4549 45.0505 15.5722 49.0368 19.4137C53.023 23.2551 55.216 28.3634 55.2127 33.7957C55.2078 45.0042 45.7399 54.1233 34.1053 54.1233H34.1069ZM45.6839 38.8973C45.0489 38.593 41.9297 37.114 41.3473 36.9083C40.7665 36.706 40.3437 36.6007 39.9209 37.2127C39.4998 37.8247 38.2824 39.2017 37.9138 39.608C37.542 40.016 37.1719 40.0654 36.5368 39.761C35.9018 39.455 33.8569 38.8101 31.4352 36.7274C29.5482 35.1085 28.2748 33.108 27.9047 32.4944C27.5345 31.884 27.8652 31.5533 28.1827 31.249C28.4673 30.9775 28.8177 30.5366 29.1336 30.1796C29.4495 29.8226 29.5548 29.5676 29.7686 29.1596C29.9792 28.7533 29.8739 28.3946 29.7144 28.0903C29.5548 27.7826 28.288 24.7753 27.7566 23.5529C27.2433 22.3618 26.7202 22.5214 26.3303 22.5017C25.9601 22.4852 25.5389 22.4803 25.1128 22.4803C24.6933 22.4803 24.004 22.6333 23.4216 23.2453C22.8409 23.8573 21.2006 25.3346 21.2006 28.342C21.2006 31.351 23.4743 34.2563 23.7918 34.6643C24.1093 35.0707 28.2666 41.245 34.6317 43.8937C36.1453 44.5205 37.3265 44.8972 38.2494 45.1802C39.7696 45.6458 41.1532 45.5783 42.2455 45.422C43.463 45.246 45.9998 43.9447 46.5263 42.5183C47.056 41.092 47.056 39.868 46.8981 39.613C46.7434 39.358 46.319 39.205 45.6839 38.8973Z" fill="#3E8A1D"/>
</svg>
