<svg width="35" height="35" viewBox="0 0 35 35" fill="none" xmlns="http://www.w3.org/2000/svg">
<rect width="35" height="35" fill="#3E8A1D"/>
<path d="M17.5403 18.8618C17.373 18.8618 17.2058 18.8039 17.15 18.6303C16.9827 18.3989 17.0943 18.0517 17.3173 17.936L18.3766 17.2416L18.0979 16.7787L17.2058 17.3574C17.0385 17.4731 16.8712 17.4731 16.704 17.4731C16.5367 17.4152 16.3694 17.2995 16.2579 17.1259L15.6446 16.1423C15.4216 15.7951 15.5331 15.3322 15.8676 15.1586L17.2058 14.2907C17.4288 14.1171 17.7633 14.2328 17.8749 14.4643C18.0421 14.6957 17.9306 15.0429 17.7076 15.1586L16.6482 15.8529L16.927 16.3158L17.8191 15.7372C17.9864 15.6215 18.1536 15.6215 18.3209 15.6215C18.4882 15.6794 18.6554 15.7951 18.7669 15.9687L19.3803 16.9523C19.4918 17.1259 19.4918 17.2995 19.4918 17.4731C19.436 17.6467 19.3245 17.8203 19.1572 17.936L17.8191 18.8039C17.7633 18.8039 17.6518 18.8618 17.5403 18.8618Z" fill="white"/>
<path d="M18.5399 18.7994C18.3726 18.7994 18.2053 18.7415 18.1496 18.568L17.8708 18.1629C17.7036 17.9315 17.8151 17.5843 18.0381 17.4686C18.2611 17.295 18.5957 17.4107 18.7072 17.6422L18.9859 18.0472C19.1532 18.2786 19.0417 18.6258 18.8187 18.7416C18.7629 18.7416 18.6514 18.7994 18.5399 18.7994Z" fill="white"/>
<path d="M16.7284 15.6797C16.5611 15.6797 16.3939 15.6218 16.3381 15.4482L16.0593 15.0432C15.892 14.8117 16.0035 14.4646 16.2266 14.3488C16.4496 14.1752 16.7841 14.291 16.8957 14.5224L17.1744 14.9275C17.3417 15.1589 17.2302 15.5061 17.0071 15.6218C16.8956 15.6218 16.7841 15.6797 16.7284 15.6797Z" fill="white"/>
<path d="M18.4125 20.7116C18.0222 20.7116 17.5762 20.5959 17.1301 20.4223C16.238 20.0174 15.4017 19.2653 14.7883 18.2818C13.5617 16.199 13.729 13.7114 15.2902 12.7279C16.7956 11.7444 19.0816 12.6122 20.3082 14.6949C20.9216 15.6784 21.2004 16.7776 21.1446 17.8189C21.0888 18.9181 20.587 19.7859 19.8622 20.2488C19.3604 20.538 18.9143 20.7116 18.4125 20.7116ZM16.6841 13.3064C16.3495 13.3064 16.0707 13.3643 15.7919 13.5378C14.7326 14.232 14.6768 16.0833 15.6247 17.7032C16.1265 18.5132 16.7956 19.0917 17.5204 19.4388C18.1895 19.7281 18.8586 19.7281 19.3046 19.381C19.8064 19.0917 20.0852 18.4553 20.141 17.7032C20.1967 16.8933 19.9737 16.0255 19.4719 15.2156C18.7471 14.0585 17.6319 13.3064 16.6841 13.3064Z" fill="white"/>
<path d="M13.0045 24.5937C12.8372 24.5937 12.67 24.5358 12.6142 24.3622C12.447 24.1308 12.5585 23.7836 12.7815 23.6679L16.1826 21.4691C16.4056 21.2955 16.7402 21.4113 16.8517 21.6427C17.019 21.8742 16.9075 22.2213 16.6845 22.3371L13.2833 24.5358C13.1718 24.5937 13.0603 24.5937 13.0045 24.5937Z" fill="white"/>
<path d="M9.00477 17.9324C8.8375 17.9324 8.67023 17.8746 8.61447 17.701C8.44721 17.4695 8.55871 17.1224 8.78174 17.0066L12.1829 14.8079C12.4059 14.6343 12.7404 14.75 12.8519 14.9815C13.0192 15.2129 12.9077 15.5601 12.6847 15.6758L9.28352 17.8746C9.17201 17.8746 9.06052 17.9324 9.00477 17.9324Z" fill="white"/>
<path d="M22.6805 18.2849C22.5132 18.2849 22.346 18.227 22.2902 18.0535C22.1229 17.8221 22.2344 17.475 22.4575 17.3593L25.4683 15.3923C25.3568 15.0451 25.3568 14.6402 25.4126 14.2352C25.5241 13.8302 25.6913 13.4831 25.9701 13.1939L24.0744 10.0119C23.3496 10.2433 22.5132 10.0698 22.0114 9.49125L19.0006 11.4583C18.7775 11.6318 18.443 11.5161 18.3315 11.2847C18.1642 11.0533 18.2758 10.7062 18.4988 10.5905L21.8999 8.39205C22.0114 8.3342 22.1229 8.27635 22.2902 8.33421C22.4017 8.39206 22.5132 8.4499 22.569 8.5656C22.9035 9.08628 23.5726 9.25985 24.0744 8.91273C24.2974 8.73917 24.6319 8.85487 24.7435 9.08628L27.0853 13.0203C27.141 13.136 27.1967 13.2517 27.141 13.4253C27.0852 13.541 27.0295 13.6567 26.918 13.7145C26.6949 13.8881 26.5277 14.1195 26.4162 14.4088C26.3604 14.698 26.4162 14.9873 26.5277 15.2765C26.5834 15.3923 26.6392 15.508 26.5834 15.6815C26.5277 15.7972 26.4719 15.9129 26.3604 15.9708L22.9593 18.1692C22.8477 18.2849 22.792 18.2849 22.6805 18.2849Z" fill="white"/>
<path d="M10.3236 28.4059C10.1563 28.4059 9.98905 28.348 9.9333 28.1745L9.20844 26.9596C9.04117 26.7281 9.15272 26.381 9.37574 26.2653C9.59877 26.0918 9.93328 26.2075 10.0448 26.4389L10.4909 27.191L29.8941 14.6369L24.5972 5.84323L5.19401 18.3973L6.69942 20.9428C6.86669 21.1742 6.75518 21.5214 6.53215 21.6371C6.30913 21.8106 5.97458 21.6949 5.86306 21.4635L4.07886 18.513C4.0231 18.3973 3.96734 18.2816 4.02309 18.1081C4.07885 17.9923 4.13461 17.8766 4.24612 17.8188L24.4857 4.68617C24.7087 4.51261 25.0432 4.62831 25.1548 4.85972L30.9534 14.5212C31.0092 14.6369 31.065 14.7526 31.0092 14.9261C30.9534 15.0419 30.8977 15.1576 30.7862 15.2154L10.5466 28.348C10.4909 28.348 10.4351 28.4059 10.3236 28.4059Z" fill="white"/>
<path d="M5.96144 17.7039C5.79417 17.7039 5.62691 17.646 5.57115 17.4725L4.62326 15.9104C4.5675 15.7947 4.51178 15.679 4.56753 15.5055C4.62329 15.3897 4.67905 15.274 4.79057 15.2162L25.0301 2.08357C25.2531 1.91001 25.5877 2.02571 25.6992 2.25712L31.4978 11.9186C31.5536 12.0343 31.6094 12.15 31.5536 12.3235C31.4978 12.4393 31.4421 12.555 31.3306 12.6128L29.9367 13.5385C29.7136 13.712 29.3791 13.5963 29.2676 13.3649C29.1003 13.1335 29.2118 12.7864 29.4349 12.6707L30.4385 12.0343L25.1416 3.24063L5.73841 15.7947L6.40746 16.9518C6.57473 17.1832 6.46323 17.5303 6.2402 17.646C6.12869 17.7039 6.07296 17.7039 5.96144 17.7039Z" fill="white"/>
<path d="M18.1774 28.9294C18.0101 28.9294 17.8428 28.8716 17.7871 28.698C17.6198 28.4665 17.7313 28.1194 17.9543 28.0036L21.0209 25.9785C21.2439 25.8049 21.5785 25.9206 21.69 26.1521C21.8573 26.3835 21.7458 26.7307 21.5227 26.8464L18.4561 28.8716C18.3446 28.8716 18.2331 28.9294 18.1774 28.9294Z" fill="white"/>
<path d="M16.6276 26.383C16.4603 26.383 16.293 26.3251 16.2373 26.1515C16.07 25.9201 16.1815 25.5729 16.4045 25.4572L22.0359 21.8119C22.259 21.6383 22.5935 21.754 22.705 21.9854C22.8723 22.2169 22.7608 22.5641 22.5378 22.6798L16.9064 26.3251C16.7949 26.3829 16.6833 26.383 16.6276 26.383Z" fill="white"/>
<path d="M8.39332 28.2392C8.22605 28.2392 8.11454 28.1813 8.00303 28.0078C7.83576 27.7764 7.89149 27.4871 8.11452 27.3136C9.84297 26.0408 8.95086 23.9002 8.89511 23.8424C8.78359 23.6109 8.8951 23.3217 9.06237 23.206L13.7459 20.1398C13.9689 19.9662 14.3035 20.0819 14.415 20.3133C14.5822 20.5448 14.4707 20.8919 14.2477 21.0076L9.89872 23.8424C10.2333 24.9994 10.289 26.9086 8.61635 28.1813C8.61635 28.1813 8.50483 28.2392 8.39332 28.2392Z" fill="white"/>
<path d="M15.9994 33.8454C15.8321 33.8454 15.6649 33.7876 15.6091 33.614C15.4418 33.3826 15.5533 33.0355 15.7764 32.9198L22.5229 28.5808C22.9689 28.2915 23.1362 27.7708 22.9689 27.3659C22.8574 27.0766 22.6344 26.9031 22.3556 26.7874C22.0768 26.6716 21.7981 26.7295 21.575 26.9031C21.352 27.0766 21.0175 26.9609 20.9059 26.7295C20.7387 26.4981 20.8502 26.151 21.0732 26.0353L23.5265 24.4154C23.9725 24.1261 24.1398 23.6054 23.9726 23.2005C23.861 22.9112 23.638 22.7376 23.3592 22.6219C23.0805 22.5062 22.8017 22.5641 22.5786 22.7376C22.3556 22.9112 22.0211 22.7955 21.9096 22.5641C21.7423 22.3327 21.8538 21.9856 22.0768 21.8699L23.1919 21.1756C23.638 20.8863 23.8053 20.3657 23.638 19.9607C23.638 19.9029 23.5823 19.845 23.5265 19.7872C23.3592 19.5557 23.4707 19.2086 23.6938 19.0929C23.9168 18.9193 24.2513 19.0351 24.3628 19.2665C24.4186 19.3822 24.4744 19.4979 24.5301 19.6136C24.8089 20.3657 24.5859 21.2913 23.9726 21.8699C24.3629 22.1013 24.6974 22.4484 24.8646 22.9112C25.1992 23.779 24.8646 24.8203 24.0283 25.3989L22.9689 26.0931C23.3592 26.3245 23.638 26.6717 23.861 27.1345C24.1956 28.0023 23.861 29.0436 23.0247 29.6221L16.2782 33.9611C16.1666 33.8454 16.0552 33.8454 15.9994 33.8454Z" fill="white"/>
<path d="M5.09843 24.9319C5.04267 24.9319 4.98693 24.9319 4.98693 24.9319C4.70815 24.874 4.59661 24.5847 4.65236 24.2955L4.98693 22.9649C5.32147 21.75 6.04629 20.6507 7.10566 20.0144L11.7892 16.9482C12.8486 16.2539 14.2425 16.4853 14.9673 17.4688C15.3576 17.9895 15.5249 18.6838 15.4133 19.378C15.3018 20.0144 14.9116 20.6507 14.354 20.9979C14.131 21.1714 13.7964 21.0557 13.6849 20.8243C13.5176 20.5929 13.6291 20.2458 13.8522 20.1301C14.1867 19.8986 14.4097 19.6094 14.4655 19.2044C14.5212 18.7994 14.4655 18.3945 14.1867 18.1052C13.7964 17.5267 12.9601 17.411 12.291 17.816L7.60749 20.8822C6.77114 21.4028 6.1578 22.2706 5.93478 23.2541L5.60025 24.5847C5.48874 24.7583 5.32145 24.9319 5.09843 24.9319Z" fill="white"/>
</svg>
